<svg width="246" height="246" viewBox="0 0 246 246" fill="none" xmlns="http://www.w3.org/2000/svg">
<path d="M91.3067 150.273C116.124 150.273 136.242 130.154 136.242 105.337C136.242 80.52 116.124 60.4016 91.3067 60.4016C66.4894 60.4016 46.3711 80.52 46.3711 105.337C46.3711 130.154 66.4894 150.273 91.3067 150.273Z" fill="#E0E0E0"/>
<path d="M51.3066 84.8403C56.7789 74.1811 66.3877 65.9942 78.0124 62.4001" stroke="#111322" stroke-width="1.23" stroke-linecap="round"/>
<path d="M71.676 70.4961C71.4189 70.2747 71.3894 69.8861 71.6108 69.629L77.7461 62.495L68.6871 59.9514C68.3599 59.8591 68.1693 59.5196 68.2615 59.1924C68.3538 58.8665 68.6957 58.6758 69.0204 58.7669L79.0093 61.5713C79.211 61.6278 79.3709 61.7841 79.4324 61.9858C79.4939 62.1875 79.4471 62.4052 79.3106 62.5651L72.5456 70.4309C72.4669 70.522 72.366 70.5859 72.2578 70.6179C72.0634 70.677 71.8445 70.6376 71.6785 70.4961H71.676Z" fill="#111322"/>
<path d="M108.798 63.9316C124.925 70.7532 136.243 86.7235 136.243 105.336C136.243 130.154 116.123 150.271 91.3069 150.271C77.8015 150.271 65.6885 144.313 57.4512 134.883" stroke="#111322" stroke-width="1.23" stroke-linecap="round"/>
<path d="M205.415 94.6067H111.022C108.829 94.6067 107.051 96.3849 107.051 98.5784V159.905C107.051 162.098 108.829 163.877 111.022 163.877H205.415C207.609 163.877 209.387 162.098 209.387 159.905V98.5784C209.387 96.3849 207.609 94.6067 205.415 94.6067Z" fill="#FCFCFD" stroke="#111322" stroke-width="1.23"/>
<path d="M131.241 115.194H117.138C115.462 115.194 114.104 116.553 114.104 118.229V126.13C114.104 127.806 115.462 129.165 117.138 129.165H131.241C132.917 129.165 134.276 127.806 134.276 126.13V118.229C134.276 116.553 132.917 115.194 131.241 115.194Z" fill="#FCFCFD" stroke="#111322" stroke-width="1.23"/>
<path d="M204.662 107.709C204.662 103.851 201.534 100.723 197.677 100.723C193.819 100.723 190.691 103.851 190.691 107.709C190.691 111.566 193.819 114.694 197.677 114.694C201.534 114.694 204.662 111.566 204.662 107.709Z" fill="#FCFCFD" stroke="#111322" stroke-width="1.23"/>
<path d="M114.104 139.587H204.662" stroke="#111322" stroke-width="1.23" stroke-linecap="round"/>
<path d="M33.1895 94.6511H73.6823" stroke="#111322" stroke-width="1.10577" stroke-linecap="round"/>
<path d="M24.9121 105.337H65.4049" stroke="#111322" stroke-width="1.10577" stroke-linecap="round"/>
<path d="M16.6328 116.022H57.1256" stroke="#111322" stroke-width="1.10577" stroke-linecap="round"/>
<path d="M114.104 145.647H118.778" stroke="#111322" stroke-width="1.23" stroke-linecap="round"/>
<path d="M127.801 145.647H195.477" stroke="#111322" stroke-width="1.23" stroke-linecap="round" stroke-dasharray="9.02 9.02"/>
<path d="M199.988 145.647H204.662" stroke="#111322" stroke-width="1.23" stroke-linecap="round"/>
<path d="M91.3066 75.1111V105.337L103.005 117.034" stroke="#111322" stroke-width="1.23" stroke-linecap="round"/>
</svg>
