<svg width="205" height="205" viewBox="0 0 205 205" fill="none" xmlns="http://www.w3.org/2000/svg">
<path d="M154.815 77.5862V141.936C154.815 144.565 148.594 146.697 140.921 146.697C133.248 146.697 127.027 144.565 127.027 141.936V77.5862" fill="#FCFCFD"/>
<path d="M154.815 77.5862V141.936C154.815 144.565 148.594 146.697 140.921 146.697C133.248 146.697 127.027 144.565 127.027 141.936V77.5862" stroke="#111322" stroke-width="1.025"/>
<path d="M140.921 72.8252C133.248 72.8252 127.027 74.9572 127.027 77.5863C127.027 80.2154 133.248 82.3474 140.921 82.3474C148.594 82.3474 154.815 80.2154 154.815 77.5863C154.815 74.9572 148.594 72.8252 140.921 72.8252Z" fill="#FCFCFD" stroke="#111322" stroke-width="1.025"/>
<path d="M127.029 84.7275C127.029 87.3567 133.25 89.4887 140.923 89.4887C148.596 89.4887 154.817 87.3567 154.817 84.7275" stroke="#111322" stroke-width="1.025"/>
<path d="M127.029 91.8687C127.029 94.4978 133.25 96.6298 140.923 96.6298C148.596 96.6298 154.817 94.4978 154.817 91.8687" stroke="#111322" stroke-width="1.025"/>
<path d="M127.029 99.011C127.029 101.64 133.25 103.772 140.923 103.772C148.596 103.772 154.817 101.64 154.817 99.011" stroke="#111322" stroke-width="1.025"/>
<path d="M127.029 106.152C127.029 108.781 133.25 110.913 140.923 110.913C148.596 110.913 154.817 108.781 154.817 106.152" stroke="#111322" stroke-width="1.025"/>
<path d="M127.029 113.293C127.029 115.922 133.25 118.054 140.923 118.054C148.596 118.054 154.817 115.922 154.817 113.293" stroke="#111322" stroke-width="1.025"/>
<path d="M127.029 120.434C127.029 123.063 133.25 125.195 140.923 125.195C148.596 125.195 154.817 123.063 154.817 120.434" stroke="#111322" stroke-width="1.025"/>
<path d="M127.029 127.575C127.029 130.205 133.25 132.337 140.923 132.337C148.596 132.337 154.817 130.205 154.817 127.575" stroke="#111322" stroke-width="1.025"/>
<path d="M127.029 134.717C127.029 137.346 133.25 139.478 140.923 139.478C148.596 139.478 154.817 137.346 154.817 134.717" stroke="#111322" stroke-width="1.025"/>
<path d="M130.027 80.9863V84.3073" stroke="#111322" stroke-width="0.6396" stroke-linecap="round"/>
<path d="M132.518 83.8594V87.1804" stroke="#111322" stroke-width="0.6396" stroke-linecap="round"/>
<path d="M136.797 83.5837V86.9047" stroke="#111322" stroke-width="0.6396" stroke-linecap="round"/>
<path d="M141.076 85.7761V89.0971" stroke="#111322" stroke-width="0.6396" stroke-linecap="round"/>
<path d="M145.512 83.8594V87.1804" stroke="#111322" stroke-width="0.6396" stroke-linecap="round"/>
<path d="M149.869 81.9231V85.2441" stroke="#111322" stroke-width="0.6396" stroke-linecap="round"/>
<path d="M152.391 83.1902V86.5112" stroke="#111322" stroke-width="0.6396" stroke-linecap="round"/>
<path d="M130.027 88.1858V91.5068" stroke="#111322" stroke-width="0.6396" stroke-linecap="round"/>
<path d="M132.518 91.0588V94.3809" stroke="#111322" stroke-width="0.6396" stroke-linecap="round"/>
<path d="M136.797 90.7832V94.1052" stroke="#111322" stroke-width="0.6396" stroke-linecap="round"/>
<path d="M141.076 92.9756V96.2976" stroke="#111322" stroke-width="0.6396" stroke-linecap="round"/>
<path d="M145.512 91.0588V94.3809" stroke="#111322" stroke-width="0.6396" stroke-linecap="round"/>
<path d="M149.869 89.1226V92.4446" stroke="#111322" stroke-width="0.6396" stroke-linecap="round"/>
<path d="M152.391 90.3906V93.7116" stroke="#111322" stroke-width="0.6396" stroke-linecap="round"/>
<path d="M130.027 95.3855V98.7075" stroke="#111322" stroke-width="0.6396" stroke-linecap="round"/>
<path d="M132.518 98.2598V101.581" stroke="#111322" stroke-width="0.6396" stroke-linecap="round"/>
<path d="M136.797 97.9839V101.305" stroke="#111322" stroke-width="0.6396" stroke-linecap="round"/>
<path d="M141.076 100.176V103.497" stroke="#111322" stroke-width="0.6396" stroke-linecap="round"/>
<path d="M145.512 98.2598V101.581" stroke="#111322" stroke-width="0.6396" stroke-linecap="round"/>
<path d="M149.869 96.3235V99.6445" stroke="#111322" stroke-width="0.6396" stroke-linecap="round"/>
<path d="M152.391 97.5903V100.911" stroke="#111322" stroke-width="0.6396" stroke-linecap="round"/>
<path d="M130.027 102.586V105.907" stroke="#111322" stroke-width="0.6396" stroke-linecap="round"/>
<path d="M132.518 105.459V108.78" stroke="#111322" stroke-width="0.6396" stroke-linecap="round"/>
<path d="M136.797 105.183V108.504" stroke="#111322" stroke-width="0.6396" stroke-linecap="round"/>
<path d="M141.076 107.376V110.697" stroke="#111322" stroke-width="0.6396" stroke-linecap="round"/>
<path d="M145.512 105.459V108.78" stroke="#111322" stroke-width="0.6396" stroke-linecap="round"/>
<path d="M149.869 103.523V106.844" stroke="#111322" stroke-width="0.6396" stroke-linecap="round"/>
<path d="M152.391 104.79V108.111" stroke="#111322" stroke-width="0.6396" stroke-linecap="round"/>
<path d="M130.027 109.786V113.107" stroke="#111322" stroke-width="0.6396" stroke-linecap="round"/>
<path d="M132.518 112.659V115.981" stroke="#111322" stroke-width="0.6396" stroke-linecap="round"/>
<path d="M136.797 112.383V115.705" stroke="#111322" stroke-width="0.6396" stroke-linecap="round"/>
<path d="M141.076 114.576V117.898" stroke="#111322" stroke-width="0.6396" stroke-linecap="round"/>
<path d="M145.512 112.659V115.981" stroke="#111322" stroke-width="0.6396" stroke-linecap="round"/>
<path d="M149.869 110.723V114.045" stroke="#111322" stroke-width="0.6396" stroke-linecap="round"/>
<path d="M152.391 111.99V115.311" stroke="#111322" stroke-width="0.6396" stroke-linecap="round"/>
<path d="M130.027 116.985V120.307" stroke="#111322" stroke-width="0.6396" stroke-linecap="round"/>
<path d="M132.518 119.859V123.18" stroke="#111322" stroke-width="0.6396" stroke-linecap="round"/>
<path d="M136.797 119.584V122.905" stroke="#111322" stroke-width="0.6396" stroke-linecap="round"/>
<path d="M141.076 121.776V125.097" stroke="#111322" stroke-width="0.6396" stroke-linecap="round"/>
<path d="M145.512 119.859V123.18" stroke="#111322" stroke-width="0.6396" stroke-linecap="round"/>
<path d="M149.869 117.923V121.244" stroke="#111322" stroke-width="0.6396" stroke-linecap="round"/>
<path d="M152.391 119.19V122.511" stroke="#111322" stroke-width="0.6396" stroke-linecap="round"/>
<path d="M130.027 124.186V127.507" stroke="#111322" stroke-width="0.6396" stroke-linecap="round"/>
<path d="M132.518 127.059V130.38" stroke="#111322" stroke-width="0.6396" stroke-linecap="round"/>
<path d="M136.797 126.783V130.104" stroke="#111322" stroke-width="0.6396" stroke-linecap="round"/>
<path d="M141.076 128.976V132.297" stroke="#111322" stroke-width="0.6396" stroke-linecap="round"/>
<path d="M145.512 127.059V130.38" stroke="#111322" stroke-width="0.6396" stroke-linecap="round"/>
<path d="M149.869 125.123V128.444" stroke="#111322" stroke-width="0.6396" stroke-linecap="round"/>
<path d="M152.391 126.389V129.71" stroke="#111322" stroke-width="0.6396" stroke-linecap="round"/>
<path d="M130.027 131.385V134.706" stroke="#111322" stroke-width="0.6396" stroke-linecap="round"/>
<path d="M132.518 134.259V137.581" stroke="#111322" stroke-width="0.6396" stroke-linecap="round"/>
<path d="M136.797 133.983V137.305" stroke="#111322" stroke-width="0.6396" stroke-linecap="round"/>
<path d="M141.076 136.175V139.497" stroke="#111322" stroke-width="0.6396" stroke-linecap="round"/>
<path d="M145.512 134.259V137.581" stroke="#111322" stroke-width="0.6396" stroke-linecap="round"/>
<path d="M149.869 132.322V135.644" stroke="#111322" stroke-width="0.6396" stroke-linecap="round"/>
<path d="M152.391 133.59V136.911" stroke="#111322" stroke-width="0.6396" stroke-linecap="round"/>
<path d="M130.027 138.585V141.907" stroke="#111322" stroke-width="0.6396" stroke-linecap="round"/>
<path d="M132.518 141.459V144.78" stroke="#111322" stroke-width="0.6396" stroke-linecap="round"/>
<path d="M136.797 141.183V144.504" stroke="#111322" stroke-width="0.6396" stroke-linecap="round"/>
<path d="M141.076 143.376V146.697" stroke="#111322" stroke-width="0.6396" stroke-linecap="round"/>
<path d="M145.512 141.459V144.78" stroke="#111322" stroke-width="0.6396" stroke-linecap="round"/>
<path d="M149.869 139.523V142.844" stroke="#111322" stroke-width="0.6396" stroke-linecap="round"/>
<path d="M152.391 140.79V144.111" stroke="#111322" stroke-width="0.6396" stroke-linecap="round"/>
<path d="M87.3893 120.512V141.936C87.3893 144.565 81.1686 146.697 73.4954 146.697C65.8223 146.697 59.6016 144.565 59.6016 141.936V120.512" fill="#FCFCFD"/>
<path d="M87.3893 120.512V141.936C87.3893 144.565 81.1686 146.697 73.4954 146.697C65.8223 146.697 59.6016 144.565 59.6016 141.936V120.512" stroke="#111322" stroke-width="1.025"/>
<path d="M73.4954 115.751C65.8223 115.751 59.6016 117.883 59.6016 120.512C59.6016 123.141 65.8223 125.273 73.4954 125.273C81.1686 125.273 87.3893 123.141 87.3893 120.512C87.3893 117.883 81.1686 115.751 73.4954 115.751Z" fill="#FCFCFD" stroke="#111322" stroke-width="1.025"/>
<path d="M59.6016 127.654C59.6016 130.283 65.8223 132.415 73.4954 132.415C81.1686 132.415 87.3893 130.283 87.3893 127.654" stroke="#111322" stroke-width="1.025"/>
<path d="M59.6016 134.795C59.6016 137.424 65.8223 139.556 73.4954 139.556C81.1686 139.556 87.3893 137.424 87.3893 134.795" stroke="#111322" stroke-width="1.025"/>
<path d="M62.6016 123.911V127.233" stroke="#111322" stroke-width="0.6396" stroke-linecap="round"/>
<path d="M65.0918 126.785V130.106" stroke="#111322" stroke-width="0.6396" stroke-linecap="round"/>
<path d="M69.3711 126.51V129.831" stroke="#111322" stroke-width="0.6396" stroke-linecap="round"/>
<path d="M73.6504 128.702V132.023" stroke="#111322" stroke-width="0.6396" stroke-linecap="round"/>
<path d="M78.0859 126.785V130.106" stroke="#111322" stroke-width="0.6396" stroke-linecap="round"/>
<path d="M82.4434 124.849V128.17" stroke="#111322" stroke-width="0.6396" stroke-linecap="round"/>
<path d="M84.9648 126.116V129.437" stroke="#111322" stroke-width="0.6396" stroke-linecap="round"/>
<path d="M62.6016 131.112V134.433" stroke="#111322" stroke-width="0.6396" stroke-linecap="round"/>
<path d="M65.0918 133.985V137.306" stroke="#111322" stroke-width="0.6396" stroke-linecap="round"/>
<path d="M69.3711 133.709V137.03" stroke="#111322" stroke-width="0.6396" stroke-linecap="round"/>
<path d="M73.6504 135.902V139.223" stroke="#111322" stroke-width="0.6396" stroke-linecap="round"/>
<path d="M78.0859 133.985V137.306" stroke="#111322" stroke-width="0.6396" stroke-linecap="round"/>
<path d="M82.4434 132.049V135.37" stroke="#111322" stroke-width="0.6396" stroke-linecap="round"/>
<path d="M84.9648 133.316V136.637" stroke="#111322" stroke-width="0.6396" stroke-linecap="round"/>
<path d="M62.6016 138.312V141.633" stroke="#111322" stroke-width="0.6396" stroke-linecap="round"/>
<path d="M65.0918 141.185V144.507" stroke="#111322" stroke-width="0.6396" stroke-linecap="round"/>
<path d="M69.3711 140.909V144.231" stroke="#111322" stroke-width="0.6396" stroke-linecap="round"/>
<path d="M73.6504 143.101V146.423" stroke="#111322" stroke-width="0.6396" stroke-linecap="round"/>
<path d="M78.0859 141.185V144.507" stroke="#111322" stroke-width="0.6396" stroke-linecap="round"/>
<path d="M82.4434 139.248V142.57" stroke="#111322" stroke-width="0.6396" stroke-linecap="round"/>
<path d="M84.9648 140.516V143.837" stroke="#111322" stroke-width="0.6396" stroke-linecap="round"/>
<path d="M53.6198 91.9465V141.936C53.6198 144.565 47.3991 146.697 39.7259 146.697C32.0528 146.697 25.832 144.565 25.832 141.936V91.9465" fill="#FCFCFD"/>
<path d="M53.6198 91.9465V141.936C53.6198 144.565 47.3991 146.697 39.7259 146.697C32.0528 146.697 25.832 144.565 25.832 141.936V91.9465" stroke="#111322" stroke-width="1.025"/>
<path d="M39.7259 87.1855C32.0528 87.1855 25.832 89.3175 25.832 91.9467C25.832 94.5758 32.0528 96.7078 39.7259 96.7078C47.3991 96.7078 53.6198 94.5758 53.6198 91.9467C53.6198 89.3175 47.3991 87.1855 39.7259 87.1855Z" fill="#FCFCFD" stroke="#111322" stroke-width="1.025"/>
<path d="M25.832 99.0876C25.832 101.717 32.0528 103.849 39.7259 103.849C47.3991 103.849 53.6198 101.717 53.6198 99.0876" stroke="#111322" stroke-width="1.025"/>
<path d="M25.832 106.229C25.832 108.858 32.0528 110.99 39.7259 110.99C47.3991 110.99 53.6198 108.858 53.6198 106.229" stroke="#111322" stroke-width="1.025"/>
<path d="M25.832 113.371C25.832 116 32.0528 118.132 39.7259 118.132C47.3991 118.132 53.6198 116 53.6198 113.371" stroke="#111322" stroke-width="1.025"/>
<path d="M25.832 120.512C25.832 123.141 32.0528 125.273 39.7259 125.273C47.3991 125.273 53.6198 123.141 53.6198 120.512" stroke="#111322" stroke-width="1.025"/>
<path d="M25.832 127.654C25.832 130.283 32.0528 132.415 39.7259 132.415C47.3991 132.415 53.6198 130.283 53.6198 127.654" stroke="#111322" stroke-width="1.025"/>
<path d="M25.832 134.795C25.832 137.424 32.0528 139.556 39.7259 139.556C47.3991 139.556 53.6198 137.424 53.6198 134.795" stroke="#111322" stroke-width="1.025"/>
<path d="M28.832 95.3464V98.6674" stroke="#111322" stroke-width="0.6396" stroke-linecap="round"/>
<path d="M31.3223 98.2197V101.541" stroke="#111322" stroke-width="0.6396" stroke-linecap="round"/>
<path d="M35.6016 97.9438V101.265" stroke="#111322" stroke-width="0.6396" stroke-linecap="round"/>
<path d="M39.8809 100.136V103.457" stroke="#111322" stroke-width="0.6396" stroke-linecap="round"/>
<path d="M44.3164 98.2197V101.541" stroke="#111322" stroke-width="0.6396" stroke-linecap="round"/>
<path d="M48.6738 96.2834V99.6044" stroke="#111322" stroke-width="0.6396" stroke-linecap="round"/>
<path d="M51.1953 97.5503V100.872" stroke="#111322" stroke-width="0.6396" stroke-linecap="round"/>
<path d="M28.832 102.546V105.867" stroke="#111322" stroke-width="0.6396" stroke-linecap="round"/>
<path d="M31.3223 105.419V108.741" stroke="#111322" stroke-width="0.6396" stroke-linecap="round"/>
<path d="M35.6016 105.145V108.466" stroke="#111322" stroke-width="0.6396" stroke-linecap="round"/>
<path d="M39.8809 107.336V110.658" stroke="#111322" stroke-width="0.6396" stroke-linecap="round"/>
<path d="M44.3164 105.419V108.741" stroke="#111322" stroke-width="0.6396" stroke-linecap="round"/>
<path d="M48.6738 103.483V106.805" stroke="#111322" stroke-width="0.6396" stroke-linecap="round"/>
<path d="M51.1953 104.751V108.072" stroke="#111322" stroke-width="0.6396" stroke-linecap="round"/>
<path d="M28.832 109.747V113.068" stroke="#111322" stroke-width="0.6396" stroke-linecap="round"/>
<path d="M31.3223 112.62V115.941" stroke="#111322" stroke-width="0.6396" stroke-linecap="round"/>
<path d="M35.6016 112.344V115.665" stroke="#111322" stroke-width="0.6396" stroke-linecap="round"/>
<path d="M39.8809 114.537V117.858" stroke="#111322" stroke-width="0.6396" stroke-linecap="round"/>
<path d="M44.3164 112.62V115.941" stroke="#111322" stroke-width="0.6396" stroke-linecap="round"/>
<path d="M48.6738 110.684V114.005" stroke="#111322" stroke-width="0.6396" stroke-linecap="round"/>
<path d="M51.1953 111.951V115.272" stroke="#111322" stroke-width="0.6396" stroke-linecap="round"/>
<path d="M28.832 116.946V120.267" stroke="#111322" stroke-width="0.6396" stroke-linecap="round"/>
<path d="M31.3223 119.819V123.14" stroke="#111322" stroke-width="0.6396" stroke-linecap="round"/>
<path d="M35.6016 119.544V122.865" stroke="#111322" stroke-width="0.6396" stroke-linecap="round"/>
<path d="M39.8809 121.736V125.057" stroke="#111322" stroke-width="0.6396" stroke-linecap="round"/>
<path d="M44.3164 119.819V123.14" stroke="#111322" stroke-width="0.6396" stroke-linecap="round"/>
<path d="M48.6738 117.883V121.204" stroke="#111322" stroke-width="0.6396" stroke-linecap="round"/>
<path d="M51.1953 119.15V122.472" stroke="#111322" stroke-width="0.6396" stroke-linecap="round"/>
<path d="M28.832 124.146V127.467" stroke="#111322" stroke-width="0.6396" stroke-linecap="round"/>
<path d="M31.3223 127.019V130.341" stroke="#111322" stroke-width="0.6396" stroke-linecap="round"/>
<path d="M35.6016 126.744V130.065" stroke="#111322" stroke-width="0.6396" stroke-linecap="round"/>
<path d="M39.8809 128.936V132.258" stroke="#111322" stroke-width="0.6396" stroke-linecap="round"/>
<path d="M44.3164 127.019V130.341" stroke="#111322" stroke-width="0.6396" stroke-linecap="round"/>
<path d="M48.6738 125.083V128.405" stroke="#111322" stroke-width="0.6396" stroke-linecap="round"/>
<path d="M51.1953 126.351V129.672" stroke="#111322" stroke-width="0.6396" stroke-linecap="round"/>
<path d="M28.832 131.346V134.667" stroke="#111322" stroke-width="0.6396" stroke-linecap="round"/>
<path d="M31.3223 134.219V137.54" stroke="#111322" stroke-width="0.6396" stroke-linecap="round"/>
<path d="M35.6016 133.944V137.265" stroke="#111322" stroke-width="0.6396" stroke-linecap="round"/>
<path d="M39.8809 136.136V139.457" stroke="#111322" stroke-width="0.6396" stroke-linecap="round"/>
<path d="M44.3164 134.219V137.54" stroke="#111322" stroke-width="0.6396" stroke-linecap="round"/>
<path d="M48.6738 132.283V135.604" stroke="#111322" stroke-width="0.6396" stroke-linecap="round"/>
<path d="M51.1953 133.55V136.871" stroke="#111322" stroke-width="0.6396" stroke-linecap="round"/>
<path d="M28.832 138.546V141.867" stroke="#111322" stroke-width="0.6396" stroke-linecap="round"/>
<path d="M31.3223 141.419V144.74" stroke="#111322" stroke-width="0.6396" stroke-linecap="round"/>
<path d="M35.6016 141.144V144.465" stroke="#111322" stroke-width="0.6396" stroke-linecap="round"/>
<path d="M39.8809 143.336V146.657" stroke="#111322" stroke-width="0.6396" stroke-linecap="round"/>
<path d="M44.3164 141.419V144.74" stroke="#111322" stroke-width="0.6396" stroke-linecap="round"/>
<path d="M48.6738 139.483V142.804" stroke="#111322" stroke-width="0.6396" stroke-linecap="round"/>
<path d="M51.1953 140.75V144.072" stroke="#111322" stroke-width="0.6396" stroke-linecap="round"/>
<path d="M119.823 106.229V141.936C119.823 144.565 113.602 146.697 105.929 146.697C98.2559 146.697 92.0352 144.565 92.0352 141.936V106.229" fill="#FCFCFD"/>
<path d="M119.823 106.229V141.936C119.823 144.565 113.602 146.697 105.929 146.697C98.2559 146.697 92.0352 144.565 92.0352 141.936V106.229" stroke="#111322" stroke-width="1.025"/>
<path d="M105.931 101.469C98.2578 101.469 92.0371 103.601 92.0371 106.23C92.0371 108.859 98.2578 110.991 105.931 110.991C113.604 110.991 119.825 108.859 119.825 106.23C119.825 103.601 113.604 101.469 105.931 101.469Z" fill="#FCFCFD" stroke="#111322" stroke-width="1.025"/>
<path d="M92.0371 113.371C92.0371 116 98.2578 118.132 105.931 118.132C113.604 118.132 119.825 116 119.825 113.371" stroke="#111322" stroke-width="1.025"/>
<path d="M92.0371 120.512C92.0371 123.141 98.2578 125.273 105.931 125.273C113.604 125.273 119.825 123.141 119.825 120.512" stroke="#111322" stroke-width="1.025"/>
<path d="M92.0371 127.654C92.0371 130.283 98.2578 132.415 105.931 132.415C113.604 132.415 119.825 130.283 119.825 127.654" stroke="#111322" stroke-width="1.025"/>
<path d="M92.0371 134.795C92.0371 137.424 98.2578 139.556 105.931 139.556C113.604 139.556 119.825 137.424 119.825 134.795" stroke="#111322" stroke-width="1.025"/>
<path d="M95.0371 109.629V112.95" stroke="#111322" stroke-width="0.6396" stroke-linecap="round"/>
<path d="M97.5273 112.502V115.824" stroke="#111322" stroke-width="0.6396" stroke-linecap="round"/>
<path d="M101.807 112.226V115.548" stroke="#111322" stroke-width="0.6396" stroke-linecap="round"/>
<path d="M106.084 114.419V117.741" stroke="#111322" stroke-width="0.6396" stroke-linecap="round"/>
<path d="M110.521 112.502V115.824" stroke="#111322" stroke-width="0.6396" stroke-linecap="round"/>
<path d="M114.879 110.566V113.888" stroke="#111322" stroke-width="0.6396" stroke-linecap="round"/>
<path d="M117.4 111.834V115.155" stroke="#111322" stroke-width="0.6396" stroke-linecap="round"/>
<path d="M95.0371 116.829V120.151" stroke="#111322" stroke-width="0.6396" stroke-linecap="round"/>
<path d="M97.5273 119.702V123.023" stroke="#111322" stroke-width="0.6396" stroke-linecap="round"/>
<path d="M101.807 119.427V122.748" stroke="#111322" stroke-width="0.6396" stroke-linecap="round"/>
<path d="M106.084 121.619V124.94" stroke="#111322" stroke-width="0.6396" stroke-linecap="round"/>
<path d="M110.521 119.702V123.023" stroke="#111322" stroke-width="0.6396" stroke-linecap="round"/>
<path d="M114.879 117.766V121.087" stroke="#111322" stroke-width="0.6396" stroke-linecap="round"/>
<path d="M117.4 119.033V122.354" stroke="#111322" stroke-width="0.6396" stroke-linecap="round"/>
<path d="M95.0371 124.029V127.35" stroke="#111322" stroke-width="0.6396" stroke-linecap="round"/>
<path d="M97.5273 126.902V130.223" stroke="#111322" stroke-width="0.6396" stroke-linecap="round"/>
<path d="M101.807 126.626V129.947" stroke="#111322" stroke-width="0.6396" stroke-linecap="round"/>
<path d="M106.084 128.819V132.14" stroke="#111322" stroke-width="0.6396" stroke-linecap="round"/>
<path d="M110.521 126.902V130.223" stroke="#111322" stroke-width="0.6396" stroke-linecap="round"/>
<path d="M114.879 124.966V128.287" stroke="#111322" stroke-width="0.6396" stroke-linecap="round"/>
<path d="M117.4 126.233V129.554" stroke="#111322" stroke-width="0.6396" stroke-linecap="round"/>
<path d="M95.0371 131.229V134.55" stroke="#111322" stroke-width="0.6396" stroke-linecap="round"/>
<path d="M97.5273 134.102V137.424" stroke="#111322" stroke-width="0.6396" stroke-linecap="round"/>
<path d="M101.807 133.826V137.148" stroke="#111322" stroke-width="0.6396" stroke-linecap="round"/>
<path d="M106.084 136.019V139.341" stroke="#111322" stroke-width="0.6396" stroke-linecap="round"/>
<path d="M110.521 134.102V137.424" stroke="#111322" stroke-width="0.6396" stroke-linecap="round"/>
<path d="M114.879 132.166V135.488" stroke="#111322" stroke-width="0.6396" stroke-linecap="round"/>
<path d="M117.4 133.433V136.754" stroke="#111322" stroke-width="0.6396" stroke-linecap="round"/>
<path d="M95.0371 138.428V141.75" stroke="#111322" stroke-width="0.6396" stroke-linecap="round"/>
<path d="M97.5273 141.302V144.623" stroke="#111322" stroke-width="0.6396" stroke-linecap="round"/>
<path d="M101.807 141.027V144.348" stroke="#111322" stroke-width="0.6396" stroke-linecap="round"/>
<path d="M106.084 143.219V146.54" stroke="#111322" stroke-width="0.6396" stroke-linecap="round"/>
<path d="M110.521 141.302V144.623" stroke="#111322" stroke-width="0.6396" stroke-linecap="round"/>
<path d="M114.879 139.366V142.687" stroke="#111322" stroke-width="0.6396" stroke-linecap="round"/>
<path d="M117.4 140.633V143.954" stroke="#111322" stroke-width="0.6396" stroke-linecap="round"/>
<path d="M39.7252 72.2869C43.6132 72.2869 46.7649 69.1351 46.7649 65.2472C46.7649 61.3593 43.6132 58.2075 39.7252 58.2075C35.8373 58.2075 32.6855 61.3593 32.6855 65.2472C32.6855 69.1351 35.8373 72.2869 39.7252 72.2869Z" fill="#FCFCFD" stroke="#111322" stroke-width="1.025"/>
<path d="M73.4948 102.386C77.3827 102.386 80.5345 99.2343 80.5345 95.3463C80.5345 91.4584 77.3827 88.3066 73.4948 88.3066C69.6069 88.3066 66.4551 91.4584 66.4551 95.3463C66.4551 99.2343 69.6069 102.386 73.4948 102.386Z" fill="#FCFCFD" stroke="#111322" stroke-width="1.025"/>
<path d="M105.93 86.3655C109.818 86.3655 112.97 83.2138 112.97 79.3258C112.97 75.4379 109.818 72.2861 105.93 72.2861C102.042 72.2861 98.8906 75.4379 98.8906 79.3258C98.8906 83.2138 102.042 86.3655 105.93 86.3655Z" fill="#FCFCFD" stroke="#111322" stroke-width="1.025"/>
<path d="M140.923 56.2991C144.81 56.2991 147.962 53.1473 147.962 49.2594C147.962 45.3715 144.81 42.2197 140.923 42.2197C137.035 42.2197 133.883 45.3715 133.883 49.2594C133.883 53.1473 137.035 56.2991 140.923 56.2991Z" fill="#FCFCFD" stroke="#111322" stroke-width="1.025"/>
<path d="M45.3164 69.5247L68.136 90.7832" stroke="#111322" stroke-width="1.025"/>
<path d="M79.3965 91.5068L99.386 81.9231" stroke="#111322" stroke-width="1.025"/>
<path d="M111.807 75.4503L135.111 53.2334" stroke="#111322" stroke-width="1.025"/>
</svg>
