<svg width="221" height="221" viewBox="0 0 221 221" fill="none" xmlns="http://www.w3.org/2000/svg">
<path d="M128.527 142.063C131.015 137.786 132.439 132.816 132.439 127.513C132.439 111.501 119.458 98.5208 103.447 98.5208C87.4355 98.5208 74.4551 111.501 74.4551 127.513C74.4551 132.817 75.8805 137.787 78.3668 142.063H128.526H128.527Z" fill="#BABABA" stroke="black" stroke-width="1.105" stroke-linecap="round"/>
<path d="M137.709 152.019H69.1859C66.5891 152.019 64.2001 150.19 63.8432 147.898L59.0983 117.39C58.642 114.458 60.7072 112.038 63.7183 112.038H143.177C146.188 112.038 148.252 114.459 147.797 117.39L143.052 147.898C142.695 150.19 140.306 152.019 137.709 152.019Z" fill="#E0E0E0" stroke="black" stroke-width="1.105" stroke-linecap="round"/>
<path d="M138.159 160.411H68.7367C66.9842 160.411 65.3775 159.214 65.1455 157.72C64.9101 156.208 66.1698 154.969 67.9621 154.969H138.935C140.726 154.969 141.987 156.208 141.752 157.72C141.52 159.213 139.913 160.411 138.161 160.411H138.159Z" fill="#E0E0E0" stroke="black" stroke-width="1.105" stroke-linecap="round"/>
<path d="M103.448 106.242C115.511 106.242 125.291 96.4632 125.291 84.3999C125.291 72.3366 115.511 62.5574 103.448 62.5574C91.3847 62.5574 81.6055 72.3366 81.6055 84.3999C81.6055 96.4632 91.3847 106.242 103.448 106.242Z" fill="#BABABA" stroke="black" stroke-width="1.105" stroke-linecap="round"/>
<path d="M83.2055 76.1841H123.308L125.291 84.3998L125.211 86.2584H82.0585L81.6055 84.3998L83.2055 76.1841Z" fill="black"/>
<path d="M89.6562 78.0662L101.889 82.726C101.889 82.726 90.4541 89.0598 89.6562 78.0662Z" fill="white"/>
<path d="M117.242 78.0662L105.01 82.726C105.01 82.726 116.444 89.0598 117.242 78.0662Z" fill="white"/>
<path d="M139.437 146.701L138.129 148.008C137.382 148.756 137.382 149.969 138.129 150.716L159.052 171.639C159.8 172.387 161.012 172.387 161.76 171.639L163.067 170.331C163.815 169.584 163.815 168.371 163.067 167.623L142.145 146.701C141.397 145.953 140.185 145.953 139.437 146.701Z" fill="white" stroke="black" stroke-width="1.105" stroke-linecap="round"/>
<path d="M125.329 130.153L121.581 133.901C120.833 134.649 120.833 135.861 121.581 136.609L142.503 157.531C143.251 158.279 144.463 158.279 145.211 157.531L148.959 153.783C149.707 153.036 149.707 151.823 148.959 151.075L128.037 130.153C127.289 129.405 126.077 129.405 125.329 130.153Z" fill="white" stroke="black" stroke-width="1.105" stroke-linecap="round"/>
<path d="M129.64 157.322C139.866 157.322 148.156 149.033 148.156 138.807C148.156 128.581 139.866 120.292 129.64 120.292C119.415 120.292 111.125 128.581 111.125 138.807C111.125 149.033 119.415 157.322 129.64 157.322Z" fill="white" stroke="black" stroke-width="1.105" stroke-linecap="round"/>
<path d="M121.404 127.383C123.72 125.711 126.565 124.726 129.64 124.726" stroke="black" stroke-width="1.105" stroke-linecap="round"/>
<path d="M143.699 139.623C143.277 147.021 137.143 152.89 129.64 152.89C124.618 152.89 120.21 150.261 117.717 146.304" stroke="black" stroke-width="1.105" stroke-linecap="round"/>
<path d="M135.555 135.735H123.723V145.562H135.555V135.735Z" fill="black"/>
<path d="M133.223 134.444C133.223 132.465 131.618 130.86 129.639 130.86C127.659 130.86 126.055 132.465 126.055 134.444V138.028C126.055 140.007 127.659 141.612 129.639 141.612C131.618 141.612 133.223 140.007 133.223 138.028V134.444Z" stroke="black" stroke-width="1.105" stroke-linecap="round"/>
<path d="M126.371 140.887L128.469 142.986L133.019 138.437" stroke="white" stroke-width="1.105" stroke-linecap="round" stroke-linejoin="round"/>
<path d="M93.985 136.203H57.7653C55.7947 136.203 54.1973 137.801 54.1973 139.771V161.982C54.1973 163.952 55.7947 165.55 57.7653 165.55H93.985C95.9556 165.55 97.553 163.952 97.553 161.982V139.771C97.553 137.801 95.9556 136.203 93.985 136.203Z" fill="#FCFCFD" stroke="#111322" stroke-width="1.105"/>
<path d="M63.0056 144.925H59.9116C58.406 144.925 57.1855 146.146 57.1855 147.651V148.118C57.1855 149.623 58.406 150.844 59.9116 150.844H63.0056C64.5111 150.844 65.7316 149.623 65.7316 148.118V147.651C65.7316 146.146 64.5111 144.925 63.0056 144.925Z" fill="#FCFCFD" stroke="#111322" stroke-width="1.105"/>
<path d="M95.5512 141.754C95.5512 140.12 94.2263 138.795 92.592 138.795C90.9577 138.795 89.6328 140.12 89.6328 141.754C89.6328 143.388 90.9577 144.713 92.592 144.713C94.2263 144.713 95.5512 143.388 95.5512 141.754Z" fill="#FCFCFD" stroke="#111322" stroke-width="1.105"/>
<path d="M57.1855 155.259H95.5522" stroke="#111322" stroke-width="1.105" stroke-linecap="round"/>
<path d="M57.1855 157.827H61.3845" stroke="#111322" stroke-width="1.105" stroke-linecap="round"/>
<path d="M71.373 157.827H86.358" stroke="#111322" stroke-width="1.105" stroke-linecap="round" stroke-dasharray="9.99 9.99"/>
<path d="M91.3535 157.827H95.5525" stroke="#111322" stroke-width="1.105" stroke-linecap="round"/>
</svg>
